<svg width="24" height="24" viewBox="0 0 24 24" fill="none" xmlns="http://www.w3.org/2000/svg">
<path fill-rule="evenodd" clip-rule="evenodd" d="M3.22057 19.1833C2.9267 19.4772 2.9267 19.9536 3.22057 20.2475L3.75267 20.7796C4.04654 21.0735 4.52299 21.0735 4.81686 20.7796L12.0001 13.5964L19.1833 20.7796C19.4772 21.0735 19.9536 21.0735 20.2475 20.7796L20.7796 20.2475C21.0735 19.9536 21.0735 19.4772 20.7796 19.1833L13.5964 12.0001L20.7798 4.81669C21.0736 4.52282 21.0736 4.04637 20.7798 3.7525L20.2477 3.2204C19.9538 2.92653 19.4773 2.92653 19.1835 3.2204L12.0001 10.4038L4.81669 3.22041C4.52282 2.92654 4.04637 2.92654 3.7525 3.22041L3.2204 3.7525C2.92653 4.04637 2.92653 4.52283 3.2204 4.8167L10.4038 12.0001L3.22057 19.1833Z" fill="black"/>
</svg>
